# Blender v2.77 (sub 0) OBJ File: 'Rock1.blend'
# www.blender.org
mtllib Rock4.mtl
o Cube
v 3.006792 -0.345412 -0.516821
v 2.879691 -0.320507 0.358703
v 1.044163 -0.308477 0.485071
v 1.006793 -0.345412 -0.516821
v 3.006793 0.367837 -0.516820
v 2.908421 0.329501 0.203296
v 1.059075 0.312798 0.485071
v 1.006792 0.367837 -0.516821
v 3.006792 -0.345412 0.035719
v 2.006793 -0.345412 -0.516821
v 3.006793 -0.025433 -0.516821
v 2.006792 -0.295178 0.485071
v 3.061250 -0.025433 0.335855
v 1.006792 -0.345412 0.035718
v 1.042907 -0.025433 0.485071
v 1.006793 -0.025433 -0.516821
v 3.006792 0.367837 0.035719
v 2.006793 0.367837 -0.516821
v 2.006792 0.350781 0.485071
v 1.006792 0.367837 0.035718
v 2.006793 -0.025433 -0.516821
v 1.006792 -0.025433 0.035718
v 2.006792 -0.025433 0.485071
v 3.006792 -0.025433 0.035719
v 2.006792 0.367837 0.035719
v 2.006792 -0.345412 0.035718
vn 0.006700 -0.995300 0.096300
vn -0.019400 0.996500 0.081100
vn 0.970000 0.217400 0.108900
vn -0.000000 0.000000 1.000000
vn -1.000000 -0.000000 -0.000000
vn 0.000000 0.000000 -1.000000
vn -0.996700 -0.002100 0.081600
vn -0.994800 0.022000 0.099200
vn 0.141500 -0.005400 0.989900
vn 0.212300 0.217100 0.952800
vn 0.953100 -0.276800 0.122200
vn 1.000000 -0.000000 0.000000
vn 0.025000 0.995300 0.093300
vn 0.000000 1.000000 0.000000
vn 0.000000 -1.000000 -0.000000
vn -0.007000 -0.995400 0.095700
usemtl Material
s off
f 26//1 12//1 3//1 14//1
f 25//2 20//2 7//2 19//2
f 24//3 17//3 6//3 13//3
f 23//4 19//4 7//4 15//4
f 22//5 20//5 8//5 16//5
f 21//6 10//6 4//6 16//6
f 18//6 21//6 16//6 8//6
f 5//6 11//6 21//6 18//6
f 11//6 1//6 10//6 21//6
f 14//5 22//5 16//5 4//5
f 3//7 15//7 22//7 14//7
f 15//8 7//8 20//8 22//8
f 12//4 23//4 15//4 3//4
f 2//9 13//9 23//9 12//9
f 13//10 6//10 19//10 23//10
f 9//11 24//11 13//11 2//11
f 1//12 11//12 24//12 9//12
f 11//12 5//12 17//12 24//12
f 17//13 25//13 19//13 6//13
f 5//14 18//14 25//14 17//14
f 18//14 8//14 20//14 25//14
f 10//15 26//15 14//15 4//15
f 1//15 9//15 26//15 10//15
f 9//16 2//16 12//16 26//16
