# Blender v2.77 (sub 0) OBJ File: 'paperplane.blend'
# www.blender.org
mtllib PaperBottom.mtl
o Cube.001
v 0.089591 0.441462 -1.000000
v -0.000610 0.242058 -1.000000
v 0.089591 0.313867 1.491335
v -0.000610 0.096265 2.063304
v 0.048280 0.390187 0.303639
v -0.013879 0.234096 1.515018
v -0.006786 0.230683 0.327322
v -0.089591 0.441462 -1.000000
v 0.000610 0.242058 -1.000000
v -0.089591 0.313867 1.491335
v 0.000610 0.096265 2.063304
v -0.048280 0.390187 0.303639
v 0.013879 0.234096 1.515018
v 0.006786 0.230683 0.327322
vn -0.906900 0.420800 0.020700
vn -0.830600 0.556100 0.029000
vn 0.565200 -0.796700 -0.214000
vn 0.906900 0.420800 0.020700
vn 0.830600 0.556100 0.029000
vn -0.565200 -0.796700 -0.214000
usemtl Material
s off
f 4//1 3//1 1//1 2//1
f 3//2 5//2 7//2 6//2
f 3//3 4//3 6//3
f 11//4 9//4 8//4 10//4
f 10//5 13//5 14//5 12//5
f 10//6 13//6 11//6
