# Blender v2.77 (sub 0) OBJ File: 'Rock1.blend'
# www.blender.org
mtllib Rock6.mtl
o Cube.003
v 1.006792 0.367588 -0.516821
v 0.879691 0.343952 0.209004
v -0.955837 0.332862 0.485071
v -0.993207 0.367588 -0.516821
v 1.006793 1.080837 -0.516820
v 0.943667 1.042501 0.203296
v -0.940925 1.025798 0.485071
v -0.993208 1.080837 -0.516821
v 1.006792 0.367588 0.035719
v 0.006793 0.367588 -0.516821
v 1.006793 0.687567 -0.516821
v 0.006792 0.366178 0.485071
v 0.857277 0.413722 0.240756
v -0.993208 0.367588 0.035718
v -0.957093 0.687567 0.485071
v -0.993207 0.687567 -0.516821
v 1.006792 1.080837 0.035719
v 0.006793 1.080837 -0.516821
v 0.006792 1.063781 0.405198
v -0.993208 1.080837 0.035718
v 0.006793 0.687567 -0.516821
v -0.993208 0.687567 0.035718
v 0.006792 0.687567 0.380551
v 1.006792 0.687567 0.035719
v 0.006792 1.080837 0.035719
v 0.006792 0.367588 0.035718
vn 0.017000 -0.999000 -0.040900
vn -0.015800 0.995900 0.088700
vn 0.887300 -0.058200 0.457600
vn 0.096700 -0.036500 0.994600
vn -1.000000 -0.000000 -0.000000
vn 0.000000 0.000000 -1.000000
vn -0.996700 -0.001900 0.081400
vn -0.994800 0.022000 0.099200
vn 0.050900 0.152700 0.987000
vn 0.261100 0.191000 0.946200
vn 0.187200 -0.003600 0.982300
vn 0.807800 -0.001600 0.589400
vn 1.000000 -0.000000 0.000000
vn 0.021900 0.994200 0.105100
vn 0.000000 1.000000 0.000000
vn 0.000000 -1.000000 -0.000000
vn -0.018300 -0.998900 -0.043900
usemtl Material.003
s off
f 26//1 12//1 3//1 14//1
f 25//2 20//2 7//2 19//2
f 24//3 17//3 6//3 13//3
f 23//4 19//4 7//4 15//4
f 22//5 20//5 8//5 16//5
f 21//6 10//6 4//6 16//6
f 18//6 21//6 16//6 8//6
f 5//6 11//6 21//6 18//6
f 11//6 1//6 10//6 21//6
f 14//5 22//5 16//5 4//5
f 3//7 15//7 22//7 14//7
f 15//8 7//8 20//8 22//8
f 12//9 23//9 15//9 3//9
f 2//10 13//10 23//10 12//10
f 13//11 6//11 19//11 23//11
f 9//12 24//12 13//12 2//12
f 1//13 11//13 24//13 9//13
f 11//13 5//13 17//13 24//13
f 17//14 25//14 19//14 6//14
f 5//15 18//15 25//15 17//15
f 18//15 8//15 20//15 25//15
f 10//16 26//16 14//16 4//16
f 1//16 9//16 26//16 10//16
f 9//17 2//17 12//17 26//17
