# Blender v2.77 (sub 0) OBJ File: 'Rock1.blend'
# www.blender.org
mtllib Rock5.mtl
o Cube.002
v 1.006792 -0.345412 -0.516821
v 0.879691 -0.320507 0.485071
v -1.025770 -0.308477 0.325860
v -0.993207 -0.345412 -0.516821
v 1.006793 0.367837 -0.516820
v 0.908421 0.329501 0.485072
v -1.040672 0.312798 0.203802
v -0.993208 0.367837 -0.516821
v 1.006792 -0.345412 0.035719
v 0.006793 -0.345412 -0.516821
v 1.006793 -0.025433 -0.516821
v 0.006792 -0.295178 0.485071
v 0.929896 -0.025433 0.485071
v -0.993208 -0.345412 0.035718
v -0.903824 -0.025433 0.307394
v -0.993207 -0.025433 -0.516821
v 1.006792 0.367837 0.035719
v 0.006793 0.367837 -0.516821
v 0.006792 0.350781 0.485071
v -0.993208 0.367837 0.035718
v 0.006793 -0.025433 -0.516821
v -0.993208 -0.025433 0.035718
v 0.006792 -0.025433 0.485071
v 1.006792 -0.025433 0.035719
v 0.006792 0.367837 0.035719
v 0.006792 -0.345412 0.035718
vn -0.002700 -0.993100 0.116900
vn -0.034000 0.993000 0.113300
vn 0.980900 0.028200 0.192500
vn -0.228900 0.096600 0.968600
vn -1.000000 -0.000000 -0.000000
vn 0.000000 0.000000 -1.000000
vn -0.976100 0.200000 0.085600
vn -0.982200 -0.173600 0.071900
vn -0.170900 0.070500 0.982800
vn -0.000000 -0.000000 1.000000
vn 0.971600 -0.079300 0.222800
vn 1.000000 -0.000000 0.000000
vn 0.011200 0.998000 0.062700
vn 0.000000 1.000000 0.000000
vn 0.000000 -1.000000 0.000000
vn -0.013500 -0.996600 0.081400
usemtl Material.002
s off
f 26//1 12//1 3//1 14//1
f 25//2 20//2 7//2 19//2
f 24//3 17//3 6//3 13//3
f 23//4 19//4 7//4 15//4
f 22//5 20//5 8//5 16//5
f 21//6 10//6 4//6 16//6
f 18//6 21//6 16//6 8//6
f 5//6 11//6 21//6 18//6
f 11//6 1//6 10//6 21//6
f 14//5 22//5 16//5 4//5
f 3//7 15//7 22//7 14//7
f 15//8 7//8 20//8 22//8
f 12//9 23//9 15//9 3//9
f 2//10 13//10 23//10 12//10
f 13//10 6//10 19//10 23//10
f 9//11 24//11 13//11 2//11
f 1//12 11//12 24//12 9//12
f 11//12 5//12 17//12 24//12
f 17//13 25//13 19//13 6//13
f 5//14 18//14 25//14 17//14
f 18//14 8//14 20//14 25//14
f 10//15 26//15 14//15 4//15
f 1//15 9//15 26//15 10//15
f 9//16 2//16 12//16 26//16
