# Blender v2.77 (sub 0) OBJ File: 'CastleTower1.blend'
# www.blender.org
mtllib CastleTower1.mtl
o Circle
v 0.000000 0.000000 -1.000000
v -0.951057 0.000000 -0.309017
v -0.587785 0.000000 0.809017
v 0.587785 0.000000 0.809017
v 0.951056 0.000000 -0.309017
v 0.000000 0.000000 -1.000000
v -0.951057 0.000000 -0.309017
v -0.587785 0.000000 0.809017
v 0.587785 0.000000 0.809017
v 0.951056 0.000000 -0.309017
v 0.000000 0.000000 -1.000000
v -0.951057 0.000000 -0.309017
v -0.587785 0.000000 0.809017
v 0.587785 0.000000 0.809017
v 0.951056 0.000000 -0.309017
v 0.000000 0.000000 -1.000000
v -0.951057 0.000000 -0.309017
v -0.587785 0.000000 0.809017
v 0.587785 0.000000 0.809017
v 0.951056 0.000000 -0.309017
v 0.000000 0.000000 -1.000000
v -0.951057 0.000000 -0.309017
v -0.587785 0.000000 0.809017
v 0.587785 0.000000 0.809017
v 0.951056 0.000000 -0.309017
v 0.000000 0.000000 -1.000000
v -0.951057 0.000000 -0.309017
v -0.587785 0.000000 0.809017
v 0.587785 0.000000 0.809017
v 0.951056 0.000000 -0.309017
v 0.000000 0.000000 -1.000000
v -0.951057 0.000000 -0.309017
v -0.587785 0.000000 0.809017
v 0.587785 0.000000 0.809017
v 0.951056 0.000000 -0.309017
v 0.000000 4.434562 -1.000000
v -0.951057 4.434562 -0.309017
v -0.587785 4.434562 0.809017
v 0.587785 4.434562 0.809017
v 0.951056 4.434562 -0.309017
v 1.654833 5.030808 -0.537688
v 1.022743 5.030808 1.407685
v -1.022743 5.030808 1.407685
v -1.654833 5.030808 -0.537688
v -0.000000 5.030808 -1.739995
v -0.000000 4.491330 -1.536463
v -1.461263 4.491330 -0.474793
v -0.903110 4.491330 1.243025
v 0.903111 4.491330 1.243025
v 1.461263 4.491330 -0.474793
v 1.654833 5.030808 -0.537688
v -1.461263 4.491330 -0.474793
v -0.000000 4.491330 -1.536463
v -0.000000 5.030808 -1.739995
v -1.654833 5.030808 -0.537688
v 1.022743 5.030808 1.407685
v -1.022743 5.030808 1.407685
v -0.511372 5.030808 1.407685
v 1.241125 5.030808 -0.838265
v -1.496811 5.030808 -0.051345
v -0.413708 5.030808 -1.439418
v 1.180766 5.030808 0.921342
v 0.413708 5.030808 -1.439418
v -1.180766 5.030808 0.921342
v -1.241125 5.030808 -0.838265
v 1.496811 5.030808 -0.051345
v 0.511372 5.030808 1.407685
v 1.022743 5.405519 1.407685
v 1.022743 5.405519 1.407685
v 1.180766 5.405519 0.921342
v 0.511372 5.405519 1.407685
v 1.654833 5.408761 -0.537688
v 1.241125 5.408761 -0.838265
v 1.496811 5.408761 -0.051345
v -0.000000 5.408448 -1.739995
v -0.413708 5.408448 -1.439418
v 0.413708 5.408448 -1.439418
v -1.654833 5.375431 -0.537688
v -1.496811 5.375431 -0.051345
v -1.241125 5.375431 -0.838265
v -1.022743 5.400000 1.407684
v -0.511372 5.400000 1.407684
v -1.180766 5.400000 0.921341
v 0.000000 4.434562 -1.000000
v -0.951057 4.434562 -0.309017
v -0.587785 4.434562 0.809017
v 0.587785 4.434562 0.809017
v 0.951056 4.434562 -0.309017
v 1.654833 5.030808 -0.537688
v 1.022743 5.030808 1.407685
v -1.022743 5.030808 1.407685
v -1.654833 5.030808 -0.537688
v -0.000000 5.030808 -1.739995
v -0.000000 4.491330 -1.536463
v -1.461263 4.491330 -0.474793
v -0.903110 4.491330 1.243025
v 0.903111 4.491330 1.243025
v 1.461263 4.491330 -0.474793
v 1.022743 5.030808 1.407685
v 1.461263 4.491330 -0.474793
v 0.903111 4.491330 1.243025
v -0.903110 4.491330 1.243025
v 1.022743 5.030808 1.407685
v -0.511372 5.030808 1.407685
v 1.241125 5.030808 -0.838265
v -1.496811 5.030808 -0.051345
v -0.413708 5.030808 -1.439418
v 1.180766 5.030808 0.921342
v 0.413708 5.030808 -1.439418
v -1.180766 5.030808 0.921342
v -1.241125 5.030808 -0.838265
v 1.496811 5.030808 -0.051345
v 0.511372 5.030808 1.407685
v 1.022743 5.405519 1.407685
v 1.022743 5.405519 1.407685
v 1.180766 5.405519 0.921342
v 0.511372 5.405519 1.407685
v 1.654833 5.408761 -0.537688
v 1.241125 5.408761 -0.838265
v 1.496811 5.408761 -0.051345
v -0.000000 5.408448 -1.739995
v -0.413708 5.408448 -1.439418
v 0.413708 5.408448 -1.439418
v -1.654833 5.375431 -0.537688
v -1.496811 5.375431 -0.051345
v -1.241125 5.375431 -0.838265
v -1.022743 5.400000 1.407684
v -0.511372 5.400000 1.407684
v -1.180766 5.400000 0.921341
vn 0.000000 0.000000 1.000000
vn 0.587800 0.000000 -0.809000
vn -0.587800 0.000000 -0.809000
vn 0.951100 0.000000 0.309000
vn -0.951100 0.000000 0.309000
vn 0.076200 -0.991600 -0.104900
vn 0.123300 -0.991600 0.040100
vn 0.562200 -0.291900 -0.773800
vn -0.123300 -0.991600 0.040100
vn -0.562200 0.291900 0.773800
vn 0.562200 0.291900 0.773800
vn 0.000000 -0.991600 0.129700
vn 0.909600 0.291900 -0.295600
vn -0.076200 -0.991600 -0.104900
vn -0.909600 0.291900 -0.295600
vn -0.000000 0.291900 -0.956400
vn 0.000000 1.000000 0.000000
vn -0.076200 0.991600 0.104900
vn -0.123300 0.991600 -0.040100
vn 0.123300 0.991600 -0.040100
vn 0.000000 -0.291900 0.956400
vn 0.909600 -0.291900 0.295600
vn -0.000000 0.991600 -0.129700
vn -0.909600 -0.291900 0.295600
vn 0.076200 0.991600 0.104900
vn -0.562200 -0.291900 -0.773800
vn 0.000000 0.000000 -1.000000
vn -0.951100 0.000000 -0.309000
vn -0.587800 0.000000 0.809000
vn 0.587800 0.000000 0.809000
vn 0.951100 0.000000 -0.309000
usemtl None
s off
f 1//1 6//1 10//1 5//1
f 4//1 9//1 8//1 3//1
f 2//1 7//1 6//1 1//1
f 5//1 10//1 9//1 4//1
f 3//1 8//1 7//1 2//1
f 8//1 13//1 12//1 7//1
f 6//1 11//1 15//1 10//1
f 9//1 14//1 13//1 8//1
f 7//1 12//1 11//1 6//1
f 10//1 15//1 14//1 9//1
f 14//1 19//1 18//1 13//1
f 12//1 17//1 16//1 11//1
f 15//1 20//1 19//1 14//1
f 13//1 18//1 17//1 12//1
f 11//1 16//1 20//1 15//1
f 20//1 25//1 24//1 19//1
f 18//1 23//1 22//1 17//1
f 16//1 21//1 25//1 20//1
f 19//1 24//1 23//1 18//1
f 17//1 22//1 21//1 16//1
f 21//1 26//1 30//1 25//1
f 24//1 29//1 28//1 23//1
f 22//1 27//1 26//1 21//1
f 25//1 30//1 29//1 24//1
f 23//1 28//1 27//1 22//1
f 30//1 35//1 34//1 29//1
f 28//1 33//1 32//1 27//1
f 26//1 31//1 35//1 30//1
f 29//1 34//1 33//1 28//1
f 27//1 32//1 31//1 26//1
f 31//2 36//2 40//2 35//2
f 34//1 39//1 38//1 33//1
f 32//3 37//3 36//3 31//3
f 35//4 40//4 39//4 34//4
f 33//5 38//5 37//5 32//5
f 40//6 36//6 46//6 50//6
f 39//7 40//7 50//7 49//7
f 51//8 100//8 53//8 54//8
f 37//9 38//9 48//9 47//9
f 89//10 93//10 94//10 98//10
f 94//11 93//11 92//11 95//11
f 38//12 39//12 49//12 48//12
f 96//13 95//13 92//13 91//13
f 36//14 37//14 47//14 46//14
f 89//15 98//15 97//15 103//15
f 91//16 103//16 97//16 96//16
f 56//1 69//1 71//1 67//1
f 62//4 70//4 68//4 42//4
f 41//4 72//4 74//4 66//4
f 59//2 73//2 72//2 41//2
f 45//2 75//2 77//2 63//2
f 61//3 76//3 75//3 45//3
f 44//3 78//3 80//3 65//3
f 60//5 79//5 78//5 44//5
f 43//5 81//5 83//5 64//5
f 58//1 82//1 81//1 43//1
f 37//17 38//17 39//17 40//17 36//17
f 88//18 98//18 94//18 84//18
f 87//19 97//19 98//19 88//19
f 85//20 95//20 96//20 86//20
f 57//21 102//21 101//21 99//21
f 51//22 99//22 101//22 100//22
f 86//23 96//23 97//23 87//23
f 102//24 57//24 55//24 52//24
f 84//25 94//25 95//25 85//25
f 53//26 52//26 55//26 54//26
f 103//27 113//27 117//27 115//27
f 108//28 90//28 114//28 116//28
f 89//28 112//28 120//28 118//28
f 105//29 89//29 118//29 119//29
f 93//29 109//29 123//29 121//29
f 107//30 93//30 121//30 122//30
f 92//30 111//30 126//30 124//30
f 106//31 92//31 124//31 125//31
f 91//31 110//31 129//31 127//31
f 104//27 91//27 127//27 128//27
l 56 42
