# Blender v2.77 (sub 0) OBJ File: 'CastleTower1.blend'
# www.blender.org
mtllib CastleWall1.mtl
o Plane
v -0.500000 3.000000 -2.000000
v 0.500000 3.000000 2.000000
v -0.500000 3.000000 2.000000
v 0.500000 3.000000 -2.000000
v -0.500000 -0.750000 2.000000
v 0.500000 -0.750000 2.000000
v -0.500000 -0.750000 -2.000000
v 0.500000 -0.750000 -2.000000
v -0.700074 3.000003 0.502707
v -0.700074 3.000003 1.502707
v -0.700074 3.000003 -1.497293
v -0.700074 3.000003 -0.497293
v -0.699926 3.400003 0.494586
v -0.699926 3.400003 1.494586
v -0.699926 3.400003 -1.505414
v -0.699926 3.400003 -0.505414
v 0.699926 3.000000 -0.497293
v 0.699926 3.000000 -1.497293
v 0.699926 3.000000 1.502707
v 0.699926 3.000000 0.502707
v 0.700074 3.400000 -0.505414
v 0.700074 3.400000 -1.505414
v 0.700074 3.400000 1.494586
v 0.700074 3.400000 0.494586
v 0.500000 2.849999 -0.497293
v 0.500000 2.849999 -1.497293
v 0.500000 2.849999 1.502707
v 0.500000 2.849999 0.502707
v -0.500000 2.849999 0.502707
v -0.500000 2.849999 1.502707
v -0.500000 2.849999 -1.497293
v -0.500000 2.849999 -0.497293
v 0.499926 3.000000 -0.295939
v 0.500074 3.400000 -0.304061
v -0.500074 3.000003 -0.295939
v -0.499926 3.400003 -0.304061
v 0.499926 3.000000 0.304061
v 0.500074 3.400000 0.295939
v -0.500074 3.000003 0.304061
v -0.499926 3.400003 0.295939
v 0.499926 3.000000 -1.695939
v 0.500074 3.400000 -1.704061
v -0.500074 3.000003 -1.695939
v -0.499926 3.400003 -1.704061
v 0.499926 3.000000 1.704061
v 0.500074 3.400000 1.695939
v -0.500074 3.000003 1.704061
v -0.499926 3.400003 1.695939
v 0.500000 3.200000 0.300000
v 0.500000 3.200000 -0.300000
v -0.500000 3.200003 -0.300000
v -0.500000 3.200003 0.300000
v 0.500000 3.200000 1.700000
v -0.500000 3.200003 1.700000
v 0.699926 3.000000 1.502707
v 0.700074 3.400000 1.494586
v -0.500074 3.000003 1.704061
v -0.500000 3.200003 1.700000
v 0.499926 3.000000 2.002030
v 0.500000 3.200000 1.997970
v -0.500074 3.000003 2.002030
v -0.500000 3.200003 1.997970
v 0.500000 3.200000 -1.700000
v -0.500000 3.200003 -1.700000
v 0.499926 3.000000 -1.997970
v -0.500074 3.000003 -1.997970
v 0.500000 3.200000 -2.002030
v -0.500000 3.200003 -2.002030
v 0.499926 3.000000 -0.295939
v -0.500074 3.000003 -0.295939
v 0.499926 3.000000 0.304061
v -0.500074 3.000003 0.304061
v 0.499926 3.000000 -1.695939
v -0.500074 3.000003 -1.695939
v 0.499926 3.000000 1.704061
v 0.500000 3.200000 0.300000
v 0.500000 3.200000 -0.300000
v -0.500000 3.200003 -0.300000
v -0.500000 3.200003 0.300000
v 0.500000 3.200000 1.700000
v -0.500074 3.000003 1.704061
v -0.500000 3.200003 1.700000
v 0.499926 3.000000 2.002030
v 0.500000 3.200000 1.997970
v -0.500074 3.000003 2.002030
v -0.500000 3.200003 1.997970
v 0.500000 3.200000 -1.700000
v -0.500000 3.200003 -1.700000
v 0.499926 3.000000 -1.997970
v -0.500074 3.000003 -1.997970
v 0.500000 3.200000 -2.002030
v -0.500000 3.200003 -2.002030
vn -0.513500 -0.684900 -0.517000
vn 0.000000 1.000000 0.000000
vn 0.515500 -0.687100 0.512000
vn -1.000000 0.000000 0.000000
vn -0.515300 -0.687300 0.511900
vn 0.513700 -0.684600 -0.517200
vn 1.000000 0.000000 0.000000
vn -1.000000 0.000400 0.000000
vn 1.000000 -0.000400 0.000000
vn -0.599900 -0.800100 0.000000
vn 0.600100 -0.799900 0.000000
vn -0.704600 -0.014100 -0.709400
vn 0.704600 -0.014700 -0.709400
vn 0.709400 0.014000 0.704600
vn -0.709400 0.014600 0.704600
vn 0.000000 0.000000 1.000000
usemtl None
s off
f 29//1 9//1 39//1
f 48//2 40//2 13//2 14//2
f 2//2 4//2 1//2 3//2
f 27//3 19//3 45//3
f 3//4 1//4 7//4 5//4
f 31//1 11//1 43//1
f 30//5 47//5 10//5
f 28//6 37//6 20//6
f 6//7 8//7 4//7 2//7
f 26//6 41//6 18//6
f 32//5 35//5 12//5
f 25//3 17//3 33//3
f 10//8 14//8 13//8 9//8
f 12//8 16//8 15//8 11//8
f 18//9 22//9 21//9 17//9
f 20//9 24//9 23//9 19//9
f 12//10 11//10 31//10 32//10
f 18//11 17//11 25//11 26//11
f 20//11 19//11 27//11 28//11
f 10//10 9//10 29//10 30//10
f 9//12 13//12 40//12 72//12
f 11//12 15//12 44//12 74//12
f 18//13 73//13 42//13 22//13
f 20//13 71//13 38//13 24//13
f 21//14 34//14 69//14 17//14
f 46//14 75//14 55//14 56//14
f 16//15 12//15 70//15 36//15
f 14//15 10//15 81//15 48//15
f 23//2 24//2 38//2 46//2
f 22//2 42//2 34//2 21//2
f 15//2 16//2 36//2 44//2
f 71//8 75//8 46//8 38//8
f 42//8 73//8 69//8 34//8
f 50//8 33//8 37//8 49//8
f 52//8 51//8 35//8 39//8
f 54//16 47//16 57//16 58//16
f 19//16 23//16 56//16 55//16
f 58//8 57//8 61//8 62//8
f 53//8 45//8 59//8 60//8
f 64//9 43//9 66//9 68//9
f 41//8 63//8 67//8 65//8
f 77//9 76//9 71//9 69//9
f 79//9 72//9 70//9 78//9
f 82//9 86//9 85//9 81//9
f 80//9 84//9 83//9 75//9
f 88//8 92//8 90//8 74//8
f 73//9 89//9 91//9 87//9
f 81//9 72//9 40//9 48//9
f 74//9 44//9 36//9 70//9
