# Blender v2.77 (sub 0) OBJ File: 'Rock1.blend'
# www.blender.org
mtllib Rock2.mtl
o Cube.006
v 5.006792 0.367588 -0.516821
v 4.879691 0.392493 0.485071
v 2.974230 0.346357 0.225774
v 3.006793 0.367588 -0.516821
v 5.006793 1.080837 -0.516820
v 4.908421 1.042501 0.485072
v 2.959328 1.025798 0.203802
v 3.006792 1.080837 -0.516821
v 5.006792 0.367588 0.035719
v 4.006793 0.367588 -0.516821
v 5.006793 0.687567 -0.516821
v 4.006793 0.417822 0.485071
v 4.929896 0.687567 0.485071
v 3.006793 0.367588 0.035718
v 2.868967 0.440932 0.241563
v 3.006793 0.687567 -0.516821
v 5.006792 1.080837 0.035719
v 4.006793 1.080837 -0.516821
v 4.006792 1.063781 0.309041
v 3.006792 1.080837 0.035718
v 4.006793 0.687567 -0.516821
v 3.006792 0.687567 0.035718
v 4.006792 0.687567 0.423887
v 5.006792 0.687567 0.035719
v 4.006792 1.080837 0.035719
v 4.006793 0.367588 0.035718
vn 0.029100 -0.998500 0.046800
vn -0.026500 0.987000 0.158400
vn 0.980900 0.028200 0.192500
vn -0.150200 0.168800 0.974100
vn -1.000000 -0.000000 -0.000000
vn 0.000000 0.000000 -1.000000
vn -0.845700 -0.195800 -0.496500
vn -0.915000 0.069200 -0.397600
vn -0.207700 0.061600 0.976300
vn -0.032300 0.110500 0.993400
vn -0.125700 0.150300 0.980600
vn 0.971600 -0.079300 0.222800
vn 1.000000 0.000000 0.000000
vn 0.004000 0.997000 0.077000
vn 0.000000 1.000000 -0.000000
vn 0.000000 -1.000000 0.000000
vn -0.013500 -0.996600 0.081400
usemtl Material.006
s off
f 26//1 12//1 3//1 14//1
f 25//2 20//2 7//2 19//2
f 24//3 17//3 6//3 13//3
f 23//4 19//4 7//4 15//4
f 22//5 20//5 8//5 16//5
f 21//6 10//6 4//6 16//6
f 18//6 21//6 16//6 8//6
f 5//6 11//6 21//6 18//6
f 11//6 1//6 10//6 21//6
f 14//5 22//5 16//5 4//5
f 3//7 15//7 22//7 14//7
f 15//8 7//8 20//8 22//8
f 12//9 23//9 15//9 3//9
f 2//10 13//10 23//10 12//10
f 13//11 6//11 19//11 23//11
f 9//12 24//12 13//12 2//12
f 1//13 11//13 24//13 9//13
f 11//13 5//13 17//13 24//13
f 17//14 25//14 19//14 6//14
f 5//15 18//15 25//15 17//15
f 18//15 8//15 20//15 25//15
f 10//16 26//16 14//16 4//16
f 1//16 9//16 26//16 10//16
f 9//17 2//17 12//17 26//17
